<svg width="80" height="24" viewBox="0 0 80 24" fill="none" xmlns="http://www.w3.org/2000/svg">
<path d="M7.14 17.6H5.08L7.68 13.48L5.08 9.38H7.14L9.9 13.48L7.14 17.6ZM7.72 14.3H1.5V12.68H7.72V14.3ZM19.2228 5H28.6228L28.6028 7.02H21.5828V11.18H27.9428V13.18H21.5828V19H19.2228V5ZM30.5867 8.38H32.8667V19H30.5867V8.38ZM31.7267 4C32.1134 4 32.4334 4.12667 32.6867 4.38C32.9401 4.63333 33.0667 4.95333 33.0667 5.34C33.0667 5.71333 32.9401 6.03333 32.6867 6.3C32.4334 6.55333 32.1134 6.68 31.7267 6.68C31.3534 6.68 31.0334 6.55333 30.7667 6.3C30.5134 6.03333 30.3867 5.71333 30.3867 5.34C30.3867 4.95333 30.5134 4.63333 30.7667 4.38C31.0334 4.12667 31.3534 4 31.7267 4ZM45.8703 17.94C45.8703 18.9667 45.6436 19.8533 45.1903 20.6C44.737 21.3467 44.097 21.92 43.2703 22.32C42.4436 22.7333 41.4703 22.94 40.3503 22.94C39.5236 22.94 38.7436 22.8133 38.0103 22.56C37.277 22.32 36.5836 21.98 35.9303 21.54L36.9103 19.96C37.417 20.3333 37.937 20.62 38.4703 20.82C39.0036 21.0333 39.597 21.14 40.2503 21.14C40.9303 21.14 41.517 21.0067 42.0103 20.74C42.517 20.4867 42.9036 20.1267 43.1703 19.66C43.4503 19.1933 43.5903 18.64 43.5903 18V8.38H45.8703V17.94ZM39.9903 8.3C40.9236 8.28667 41.717 8.48667 42.3703 8.9C43.037 9.3 43.5436 9.88 43.8903 10.64C44.237 11.4 44.4036 12.3133 44.3903 13.38C44.4036 14.4467 44.237 15.3667 43.8903 16.14C43.557 16.9 43.0636 17.4867 42.4103 17.9C41.7703 18.3 40.9903 18.5 40.0703 18.5C39.1103 18.5 38.2703 18.2867 37.5503 17.86C36.8303 17.42 36.2703 16.8133 35.8703 16.04C35.4703 15.2667 35.2703 14.3733 35.2703 13.36C35.2703 12.36 35.4636 11.4867 35.8503 10.74C36.2503 9.98 36.8036 9.38667 37.5103 8.96C38.2303 8.52 39.057 8.3 39.9903 8.3ZM40.5303 10.06C39.9303 10.06 39.397 10.2067 38.9303 10.5C38.4636 10.78 38.097 11.1733 37.8303 11.68C37.577 12.1867 37.4436 12.7667 37.4303 13.42C37.4436 14.0733 37.577 14.6533 37.8303 15.16C38.097 15.6667 38.457 16.0667 38.9103 16.36C39.377 16.64 39.917 16.78 40.5303 16.78C41.1303 16.78 41.657 16.64 42.1103 16.36C42.577 16.0667 42.937 15.6667 43.1903 15.16C43.457 14.6533 43.5903 14.0733 43.5903 13.42C43.5903 12.7533 43.457 12.1733 43.1903 11.68C42.937 11.1733 42.577 10.78 42.1103 10.5C41.657 10.2067 41.1303 10.06 40.5303 10.06ZM56.8033 13C56.8033 12.16 56.5833 11.5067 56.1433 11.04C55.7033 10.56 55.0899 10.32 54.3033 10.32C53.3833 10.3467 52.6566 10.6867 52.1233 11.34C51.6033 11.9933 51.3433 12.8 51.3433 13.76H50.7033C50.7033 12.4533 50.8833 11.4 51.2433 10.6C51.6166 9.8 52.1366 9.22 52.8033 8.86C53.4833 8.48667 54.2833 8.3 55.2033 8.3C56.0166 8.3 56.7099 8.46667 57.2833 8.8C57.8699 9.13333 58.3166 9.60667 58.6233 10.22C58.9433 10.82 59.1033 11.5467 59.1033 12.4V19H56.8033V13ZM64.5433 13C64.5433 12.16 64.3166 11.5067 63.8633 11.04C63.4233 10.56 62.8099 10.32 62.0233 10.32C61.1166 10.3467 60.4033 10.6867 59.8833 11.34C59.3633 11.9933 59.1033 12.8 59.1033 13.76H58.4433C58.4433 12.4533 58.6233 11.4 58.9833 10.6C59.3566 9.8 59.8766 9.22 60.5433 8.86C61.2233 8.48667 62.0233 8.3 62.9433 8.3C63.7566 8.3 64.4499 8.46667 65.0233 8.8C65.6099 9.13333 66.0566 9.60667 66.3633 10.22C66.6833 10.82 66.8433 11.5467 66.8433 12.4V19H64.5433V13ZM49.0633 8.38H51.3433V19H49.0633V8.38ZM73.4027 14.26C72.656 14.26 72.1027 14.3733 71.7427 14.6C71.3827 14.8267 71.2027 15.2 71.2027 15.72C71.2027 16.2133 71.3827 16.6067 71.7427 16.9C72.116 17.1933 72.6227 17.34 73.2627 17.34C73.836 17.34 74.3493 17.24 74.8027 17.04C75.256 16.84 75.616 16.5733 75.8827 16.24C76.1493 15.8933 76.2893 15.5067 76.3027 15.08L76.7427 17.02C76.4093 17.7133 75.9027 18.2333 75.2227 18.58C74.5427 18.9267 73.7293 19.1 72.7827 19.1C72.0227 19.1 71.3627 18.9533 70.8027 18.66C70.2427 18.3667 69.8093 17.9733 69.5027 17.48C69.196 16.9733 69.0427 16.4133 69.0427 15.8C69.0427 14.84 69.3893 14.0733 70.0827 13.5C70.7893 12.9267 71.7827 12.6333 73.0627 12.62H76.5827V14.26H73.4027ZM76.2827 12.26C76.2827 11.5667 76.0693 11.0267 75.6427 10.64C75.216 10.2533 74.5827 10.06 73.7427 10.06C73.236 10.06 72.716 10.1533 72.1827 10.34C71.6627 10.5267 71.136 10.8 70.6027 11.16L69.6627 9.68C70.156 9.37333 70.6227 9.12 71.0627 8.92C71.5027 8.72 71.9693 8.56667 72.4627 8.46C72.9693 8.35333 73.5627 8.3 74.2427 8.3C75.616 8.3 76.6693 8.63333 77.4027 9.3C78.1493 9.95333 78.5293 10.86 78.5427 12.02L78.5627 19H76.3027L76.2827 12.26Z" fill="#EFEEEE"/>
<path d="M0 21.5H34.9297V22.5H0V21.5ZM45.4609 21.5H79.9427V22.5H45.4609V21.5Z" fill="#EFEEEE"/>
</svg>
