<svg width="29" height="24" viewBox="0 0 29 24" fill="none" xmlns="http://www.w3.org/2000/svg">
<path fill-rule="evenodd" clip-rule="evenodd" d="M12.6646 18.923V0H20.9634C22.1528 0 23.2341 0.261318 24.2073 0.783953C25.1804 1.28857 25.9553 2.00944 26.532 2.94658C27.1087 3.8657 27.3971 4.94701 27.3971 6.19052C27.3971 7.45205 27.0727 8.56941 26.4239 9.54259C25.7932 10.4978 24.9371 11.2096 23.8559 11.6782L25.8833 15.7872C26.0274 16.0755 26.1806 16.2918 26.3428 16.436C26.523 16.5621 26.7753 16.6252 27.0997 16.6252H28.4513V18.923H26.6942C25.9914 18.923 25.3697 18.7428 24.829 18.3823C24.3064 18.0219 23.8739 17.5353 23.5315 16.9226L21.2608 12.2999C21.0806 12.318 20.8823 12.336 20.6661 12.354H20.0443H19.9826V10.0562H20.612C21.3869 10.0562 22.0898 9.90303 22.7205 9.59666C23.3693 9.29028 23.8739 8.84875 24.2343 8.27205C24.6128 7.69535 24.802 7.00151 24.802 6.19052C24.802 5.36151 24.6128 4.65866 24.2343 4.08196C23.8559 3.50526 23.3513 3.06372 22.7205 2.75735C22.0898 2.45098 21.3959 2.29779 20.639 2.29779H15.2596V10.0562V12.354V18.923H12.6646ZM18.9359 12.354V10.0562H16.3477V12.354H18.9359Z" fill="#EFEEEE"/>
<path d="M13.8544 22.9871C12.8452 22.9871 11.9532 22.7618 11.1782 22.3112C10.4213 21.8427 9.82663 21.2119 9.39412 20.4189C8.9616 19.626 8.74535 18.7339 8.74535 17.7427V8.30823C8.74535 7.82163 8.62821 7.3801 8.39393 6.98362C8.15965 6.58714 7.84428 6.27175 7.44781 6.03747C7.05133 5.80318 6.61882 5.68604 6.15026 5.68604C5.68171 5.68604 5.24919 5.80318 4.85272 6.03747C4.47427 6.27175 4.16791 6.58714 3.93363 6.98362C3.71737 7.3801 3.60924 7.82163 3.60924 8.30823V22.6627H1.01416V8.65965C1.01416 7.66845 1.23042 6.77636 1.66293 5.9834C2.09545 5.19044 2.69916 4.56868 3.47408 4.11814C4.249 3.64957 5.14106 3.41528 6.15026 3.41528C7.17748 3.41528 8.07856 3.64957 8.85348 4.11814C9.6284 4.56868 10.2321 5.19044 10.6646 5.9834C11.0971 6.77636 11.3134 7.66845 11.3134 8.65965V18.0941C11.3134 18.5807 11.4305 19.0222 11.6648 19.4187C11.8991 19.8152 12.2055 20.1306 12.5839 20.3649C12.9804 20.5992 13.4039 20.7163 13.8544 20.7163C14.305 20.7163 14.7194 20.5992 15.0979 20.3649C15.4763 20.1306 15.7737 19.8152 15.99 19.4187C16.2242 19.0222 16.3414 18.5807 16.3414 18.0941V3.73968H18.9365V17.7427C18.9365 18.7339 18.7202 19.626 18.2877 20.4189C17.8552 21.2119 17.2605 21.8427 16.5036 22.3112C15.7467 22.7618 14.8636 22.9871 13.8544 22.9871Z" fill="#EFEEEE"/>
</svg>
