<svg width="80" height="19" viewBox="0 0 80 19" fill="none" xmlns="http://www.w3.org/2000/svg">
<path d="M7.14 13.6H5.08L7.68 9.48L5.08 5.38H7.14L9.9 9.48L7.14 13.6ZM7.72 10.3H1.5V8.68H7.72V10.3ZM19.2228 0.999999H28.6228L28.6028 3.02H21.5828V7.18H27.9428V9.18H21.5828V15H19.2228V0.999999ZM30.5867 4.38H32.8667V15H30.5867V4.38ZM31.7267 -1.19209e-06C32.1134 -1.19209e-06 32.4334 0.126666 32.6867 0.38C32.9401 0.633333 33.0667 0.953333 33.0667 1.34C33.0667 1.71333 32.9401 2.03333 32.6867 2.3C32.4334 2.55333 32.1134 2.68 31.7267 2.68C31.3534 2.68 31.0334 2.55333 30.7667 2.3C30.5134 2.03333 30.3867 1.71333 30.3867 1.34C30.3867 0.953333 30.5134 0.633333 30.7667 0.38C31.0334 0.126666 31.3534 -1.19209e-06 31.7267 -1.19209e-06ZM45.8703 13.94C45.8703 14.9667 45.6436 15.8533 45.1903 16.6C44.737 17.3467 44.097 17.92 43.2703 18.32C42.4436 18.7333 41.4703 18.94 40.3503 18.94C39.5236 18.94 38.7436 18.8133 38.0103 18.56C37.277 18.32 36.5836 17.98 35.9303 17.54L36.9103 15.96C37.417 16.3333 37.937 16.62 38.4703 16.82C39.0036 17.0333 39.597 17.14 40.2503 17.14C40.9303 17.14 41.517 17.0067 42.0103 16.74C42.517 16.4867 42.9036 16.1267 43.1703 15.66C43.4503 15.1933 43.5903 14.64 43.5903 14V4.38H45.8703V13.94ZM39.9903 4.3C40.9236 4.28667 41.717 4.48667 42.3703 4.9C43.037 5.3 43.5436 5.88 43.8903 6.64C44.237 7.4 44.4036 8.31333 44.3903 9.38C44.4036 10.4467 44.237 11.3667 43.8903 12.14C43.557 12.9 43.0636 13.4867 42.4103 13.9C41.7703 14.3 40.9903 14.5 40.0703 14.5C39.1103 14.5 38.2703 14.2867 37.5503 13.86C36.8303 13.42 36.2703 12.8133 35.8703 12.04C35.4703 11.2667 35.2703 10.3733 35.2703 9.36C35.2703 8.36 35.4636 7.48667 35.8503 6.74C36.2503 5.98 36.8036 5.38667 37.5103 4.96C38.2303 4.52 39.057 4.3 39.9903 4.3ZM40.5303 6.06C39.9303 6.06 39.397 6.20667 38.9303 6.5C38.4636 6.78 38.097 7.17333 37.8303 7.68C37.577 8.18667 37.4436 8.76667 37.4303 9.42C37.4436 10.0733 37.577 10.6533 37.8303 11.16C38.097 11.6667 38.457 12.0667 38.9103 12.36C39.377 12.64 39.917 12.78 40.5303 12.78C41.1303 12.78 41.657 12.64 42.1103 12.36C42.577 12.0667 42.937 11.6667 43.1903 11.16C43.457 10.6533 43.5903 10.0733 43.5903 9.42C43.5903 8.75333 43.457 8.17333 43.1903 7.68C42.937 7.17333 42.577 6.78 42.1103 6.5C41.657 6.20667 41.1303 6.06 40.5303 6.06ZM56.8033 9C56.8033 8.16 56.5833 7.50667 56.1433 7.04C55.7033 6.56 55.0899 6.32 54.3033 6.32C53.3833 6.34667 52.6566 6.68667 52.1233 7.34C51.6033 7.99333 51.3433 8.8 51.3433 9.76H50.7033C50.7033 8.45333 50.8833 7.4 51.2433 6.6C51.6166 5.8 52.1366 5.22 52.8033 4.86C53.4833 4.48667 54.2833 4.3 55.2033 4.3C56.0166 4.3 56.7099 4.46667 57.2833 4.8C57.8699 5.13333 58.3166 5.60667 58.6233 6.22C58.9433 6.82 59.1033 7.54667 59.1033 8.4V15H56.8033V9ZM64.5433 9C64.5433 8.16 64.3166 7.50667 63.8633 7.04C63.4233 6.56 62.8099 6.32 62.0233 6.32C61.1166 6.34667 60.4033 6.68667 59.8833 7.34C59.3633 7.99333 59.1033 8.8 59.1033 9.76H58.4433C58.4433 8.45333 58.6233 7.4 58.9833 6.6C59.3566 5.8 59.8766 5.22 60.5433 4.86C61.2233 4.48667 62.0233 4.3 62.9433 4.3C63.7566 4.3 64.4499 4.46667 65.0233 4.8C65.6099 5.13333 66.0566 5.60667 66.3633 6.22C66.6833 6.82 66.8433 7.54667 66.8433 8.4V15H64.5433V9ZM49.0633 4.38H51.3433V15H49.0633V4.38ZM73.4027 10.26C72.656 10.26 72.1027 10.3733 71.7427 10.6C71.3827 10.8267 71.2027 11.2 71.2027 11.72C71.2027 12.2133 71.3827 12.6067 71.7427 12.9C72.116 13.1933 72.6227 13.34 73.2627 13.34C73.836 13.34 74.3493 13.24 74.8027 13.04C75.256 12.84 75.616 12.5733 75.8827 12.24C76.1493 11.8933 76.2893 11.5067 76.3027 11.08L76.7427 13.02C76.4093 13.7133 75.9027 14.2333 75.2227 14.58C74.5427 14.9267 73.7293 15.1 72.7827 15.1C72.0227 15.1 71.3627 14.9533 70.8027 14.66C70.2427 14.3667 69.8093 13.9733 69.5027 13.48C69.196 12.9733 69.0427 12.4133 69.0427 11.8C69.0427 10.84 69.3893 10.0733 70.0827 9.5C70.7893 8.92667 71.7827 8.63333 73.0627 8.62H76.5827V10.26H73.4027ZM76.2827 8.26C76.2827 7.56667 76.0693 7.02667 75.6427 6.64C75.216 6.25333 74.5827 6.06 73.7427 6.06C73.236 6.06 72.716 6.15333 72.1827 6.34C71.6627 6.52667 71.136 6.8 70.6027 7.16L69.6627 5.68C70.156 5.37333 70.6227 5.12 71.0627 4.92C71.5027 4.72 71.9693 4.56667 72.4627 4.46C72.9693 4.35333 73.5627 4.3 74.2427 4.3C75.616 4.3 76.6693 4.63333 77.4027 5.3C78.1493 5.95333 78.5293 6.86 78.5427 8.02L78.5627 15H76.3027L76.2827 8.26Z" fill="#282828"/>
<path d="M0 17.5H34.9297V18.5H0V17.5ZM45.4609 17.5H79.9427V18.5H45.4609V17.5Z" fill="#282828"/>
</svg>
