<svg width="29" height="24" viewBox="0 0 29 24" fill="none" xmlns="http://www.w3.org/2000/svg">
<path fill-rule="evenodd" clip-rule="evenodd" d="M12.6645 18.923V0H20.9634C22.1528 0 23.2341 0.261318 24.2073 0.783953C25.1804 1.28857 25.9553 2.00944 26.532 2.94658C27.1087 3.8657 27.397 4.94701 27.397 6.19052C27.397 7.45205 27.0727 8.56941 26.4239 9.54259C25.7931 10.4978 24.9371 11.2096 23.8558 11.6782L25.8832 15.7872C26.0274 16.0755 26.1806 16.2918 26.3428 16.436C26.523 16.5621 26.7753 16.6252 27.0997 16.6252H28.4513V18.923H26.6942C25.9914 18.923 25.3696 18.7428 24.829 18.3823C24.3064 18.0219 23.8739 17.5353 23.5315 16.9226L21.2608 12.2999C21.0805 12.318 20.8823 12.336 20.666 12.354H20.0443H19.9826V10.0562H20.612C21.3869 10.0562 22.0897 9.90303 22.7205 9.59666C23.3693 9.29028 23.8739 8.84875 24.2343 8.27205C24.6127 7.69535 24.802 7.00151 24.802 6.19052C24.802 5.36151 24.6127 4.65866 24.2343 4.08196C23.8558 3.50526 23.3512 3.06372 22.7205 2.75735C22.0897 2.45098 21.3959 2.29779 20.639 2.29779H15.2596V10.0562V12.354V18.923H12.6645ZM18.9358 12.354V10.0562H16.3476V12.354H18.9358Z" fill="#282828"/>
<path d="M13.8544 22.9871C12.8452 22.9871 11.9531 22.7618 11.1782 22.3112C10.4213 21.8427 9.82661 21.2119 9.3941 20.4189C8.96158 19.626 8.74532 18.7339 8.74532 17.7427V8.30823C8.74532 7.82163 8.62819 7.3801 8.39391 6.98362C8.15963 6.58714 7.84425 6.27175 7.44778 6.03747C7.05131 5.80318 6.6188 5.68604 6.15024 5.68604C5.68168 5.68604 5.24917 5.80318 4.8527 6.03747C4.47425 6.27175 4.16788 6.58714 3.93361 6.98362C3.71735 7.3801 3.60922 7.82163 3.60922 8.30823V22.6627H1.01414V8.65965C1.01414 7.66845 1.23039 6.77636 1.66291 5.9834C2.09542 5.19044 2.69914 4.56868 3.47406 4.11814C4.24898 3.64957 5.14104 3.41528 6.15024 3.41528C7.17746 3.41528 8.07853 3.64957 8.85345 4.11814C9.62837 4.56868 10.2321 5.19044 10.6646 5.9834C11.0971 6.77636 11.3134 7.66845 11.3134 8.65965V18.0941C11.3134 18.5807 11.4305 19.0222 11.6648 19.4187C11.8991 19.8152 12.2054 20.1306 12.5839 20.3649C12.9804 20.5992 13.4039 20.7163 13.8544 20.7163C14.3049 20.7163 14.7194 20.5992 15.0979 20.3649C15.4763 20.1306 15.7737 19.8152 15.9899 19.4187C16.2242 19.0222 16.3414 18.5807 16.3414 18.0941V3.73968H18.9364V17.7427C18.9364 18.7339 18.7202 19.626 18.2877 20.4189C17.8552 21.2119 17.2604 21.8427 16.5035 22.3112C15.7466 22.7618 14.8636 22.9871 13.8544 22.9871Z" fill="#282828"/>
</svg>
